<svg width="20" height="18" viewBox="0 0 20 18" fill="none" xmlns="http://www.w3.org/2000/svg">
<path d="M10.0013 0.251099C4.47858 0.251099 0.00259217 3.88735 0.00259217 8.37505C0.00259217 10.2342 0.779835 11.9371 2.06873 13.308C1.48677 14.8469 0.275994 16.1514 0.256466 16.167C-0.00131357 16.4404 -0.071617 16.8388 0.0768013 17.1825C0.22522 17.5262 0.565019 17.7488 0.939971 17.7488C3.342 17.7488 5.23629 16.7451 6.37286 15.9405C7.50162 16.2959 8.72021 16.499 10.0013 16.499C15.524 16.499 20 12.8627 20 8.37505C20 3.88735 15.524 0.251099 10.0013 0.251099ZM10.0013 14.6242C8.95846 14.6242 7.92735 14.4641 6.93919 14.1516L6.05259 13.8704L5.29097 14.4094C4.73245 14.8039 3.96692 15.2452 3.04517 15.5421C3.33029 15.0695 3.60759 14.5383 3.82241 13.972L4.23642 12.8745L3.43184 12.023C2.7249 11.2692 1.87735 10.0233 1.87735 8.37505C1.87735 4.93018 5.52141 2.12586 10.0013 2.12586C14.4812 2.12586 18.1252 4.93018 18.1252 8.37505C18.1252 11.8199 14.4812 14.6242 10.0013 14.6242Z" fill="#6C6C6C"/>
</svg>
