<svg width="30" height="30" viewBox="0 0 30 30" fill="none" xmlns="http://www.w3.org/2000/svg">
<g clip-path="url(#clip0_10_0)">
<path d="M22.9112 14.7336H25.0038C25.4769 14.7336 25.8618 14.3487 25.8618 13.8756V11.783C25.8618 11.3099 25.4769 10.925 25.0038 10.925H22.9112C22.4381 10.925 22.0532 11.3099 22.0532 11.783V13.8756C22.0532 14.3487 22.4381 14.7336 22.9112 14.7336ZM22.9321 11.8039H24.9829V13.8547H22.9321V11.8039ZM22.9112 20.3H25.0038C25.4769 20.3 25.8618 19.9151 25.8618 19.4421V17.3494C25.8618 16.8763 25.4769 16.4914 25.0038 16.4914H22.9112C22.4381 16.4914 22.0532 16.8763 22.0532 17.3494V19.4421C22.0532 19.9151 22.4381 20.3 22.9112 20.3ZM22.9321 17.3704H24.9829V19.4211H22.9321V17.3704ZM16.9395 14.7336H19.0321C19.5052 14.7336 19.8901 14.3487 19.8901 13.8756V11.783C19.8901 11.3099 19.5052 10.925 19.0321 10.925H16.9395C16.4664 10.925 16.0815 11.3099 16.0815 11.783V13.8756C16.0815 14.3487 16.4664 14.7336 16.9395 14.7336ZM16.9604 11.8039H19.0112V13.8547H16.9604V11.8039ZM7.08885 21.7969H4.99624C4.52315 21.7969 4.13825 22.1818 4.13825 22.6549V24.7475C4.13825 25.2206 4.52315 25.6055 4.99624 25.6055H7.08885C7.56194 25.6055 7.94684 25.2206 7.94684 24.7475V22.6549C7.94684 22.1818 7.56194 21.7969 7.08885 21.7969ZM7.06793 24.7266H5.01715V22.6758H7.06793V24.7266ZM7.08885 10.925H4.99624C4.52315 10.925 4.13825 11.3099 4.13825 11.783V13.8756C4.13825 14.3487 4.52315 14.7336 4.99624 14.7336H7.08885C7.56194 14.7336 7.94684 14.3487 7.94684 13.8756V11.783C7.94684 11.3099 7.56194 10.925 7.08885 10.925ZM7.06793 13.8547H5.01715V11.8039H7.06793V13.8547ZM16.9395 20.1695H19.0321C19.5052 20.1695 19.8901 19.7846 19.8901 19.3116V17.2189C19.8901 16.7459 19.5052 16.361 19.0321 16.361H16.9395C16.4664 16.361 16.0815 16.7459 16.0815 17.2189V19.3116C16.0815 19.7846 16.4664 20.1695 16.9395 20.1695ZM16.9604 17.2399H19.0112V19.2906H16.9604V17.2399ZM26.2982 2.00824H24.4194V1.33635C24.4194 0.599473 23.8199 0 23.083 0H22.8812C22.1444 0 21.5449 0.599473 21.5449 1.33635V2.00824H8.45508V1.33635C8.45508 0.599473 7.85561 0 7.11874 0H6.91694C6.18006 0 5.58059 0.599473 5.58059 1.33635V2.00824H3.70178C2.4886 2.00824 1.50159 2.99525 1.50159 4.20844V27.8027C1.50159 29.0143 2.48725 30 3.69885 30H26.3013C27.5129 30 28.4985 29.0143 28.4985 27.8027V4.20844C28.4985 2.99525 27.5115 2.00824 26.2982 2.00824ZM22.4238 1.33635C22.4238 1.0841 22.629 0.878906 22.8813 0.878906H23.0831C23.3353 0.878906 23.5405 1.0841 23.5405 1.33635V2.00824H22.4238V1.33635ZM6.45956 1.33635C6.45956 1.0841 6.66475 0.878906 6.917 0.878906H7.11879C7.37104 0.878906 7.57624 1.0841 7.57624 1.33635V2.00824H6.45961V1.33635H6.45956ZM27.6196 27.8027C27.6196 28.5297 27.0282 29.1211 26.3012 29.1211H3.69879C2.97182 29.1211 2.38043 28.5297 2.38043 27.8027V27.8C2.74864 28.0774 3.20631 28.2422 3.70178 28.2422H21.5191C22.1068 28.2422 22.6594 28.0133 23.0749 27.5977L27.6196 23.0531V27.8027ZM22.6265 26.8032C22.661 26.661 22.6797 26.5127 22.6797 26.36V23.4266C22.6797 22.8735 23.1298 22.4234 23.683 22.4234H26.6163C26.769 22.4234 26.9173 22.4047 27.0595 22.3702L22.6265 26.8032ZM27.6196 8.28832H8.89454C8.65184 8.28832 8.45508 8.48508 8.45508 8.72777C8.45508 8.97047 8.65184 9.16723 8.89454 9.16723H27.6196V20.5413C27.6196 21.0945 27.1695 21.5446 26.6163 21.5446H23.683C22.6451 21.5446 21.8008 22.3889 21.8008 23.4267V26.3601C21.8008 26.9133 21.3507 27.3633 20.7976 27.3633H3.70178C2.97323 27.3633 2.38049 26.7706 2.38049 26.042V9.16723H7.13672C7.37942 9.16723 7.57618 8.97047 7.57618 8.72777C7.57618 8.48508 7.37942 8.28832 7.13672 8.28832H2.38043V4.20844C2.38043 3.47988 2.97317 2.88715 3.70172 2.88715H5.58059V4.17926C5.58059 4.91613 6.18006 5.51561 6.91694 5.51561C7.15963 5.51561 7.35639 5.31885 7.35639 5.07615C7.35639 4.83346 7.15963 4.6367 6.91694 4.6367C6.66469 4.6367 6.4595 4.4315 6.4595 4.17926V2.88715H21.5449V4.17926C21.5449 4.91613 22.1444 5.51561 22.8813 5.51561C23.124 5.51561 23.3207 5.31885 23.3207 5.07615C23.3207 4.83346 23.124 4.6367 22.8813 4.6367C22.629 4.6367 22.4238 4.4315 22.4238 4.17926V2.88715H26.2983C27.0268 2.88715 27.6196 3.47988 27.6196 4.20844V8.28832ZM7.08885 16.361H4.99624C4.52315 16.361 4.13825 16.7459 4.13825 17.2189V19.3116C4.13825 19.7846 4.52315 20.1695 4.99624 20.1695H7.08885C7.56194 20.1695 7.94684 19.7846 7.94684 19.3116V17.2189C7.94684 16.7458 7.56194 16.361 7.08885 16.361ZM7.06793 19.2906H5.01715V17.2399H7.06793V19.2906ZM10.9679 14.7336H13.0605C13.5336 14.7336 13.9185 14.3487 13.9185 13.8756V11.783C13.9185 11.3099 13.5336 10.925 13.0605 10.925H10.9679C10.4948 10.925 10.1099 11.3099 10.1099 11.783V13.8756C10.1099 14.3487 10.4948 14.7336 10.9679 14.7336ZM10.9888 11.8039H13.0396V13.8547H10.9888V11.8039ZM16.9599 24.7266C16.949 24.4935 16.7566 24.308 16.5209 24.308C16.2782 24.308 16.0815 24.5048 16.0815 24.7475C16.0815 25.2206 16.4664 25.6055 16.9395 25.6055H19.0321C19.5052 25.6055 19.8901 25.2206 19.8901 24.7475V22.6549C19.8901 22.1818 19.5052 21.7969 19.0321 21.7969H16.9395C16.4664 21.7969 16.0815 22.1818 16.0815 22.6549V23.2584C16.0815 23.5011 16.2782 23.6978 16.5209 23.6978C16.7636 23.6978 16.9604 23.5011 16.9604 23.2584V22.6758H19.0112V24.7266H16.9599ZM10.9679 20.1695H13.0605C13.5336 20.1695 13.9185 19.7846 13.9185 19.3116V17.2189C13.9185 16.7459 13.5336 16.361 13.0605 16.361H10.9679C10.4948 16.361 10.1099 16.7459 10.1099 17.2189V19.3116C10.1099 19.7846 10.4948 20.1695 10.9679 20.1695ZM10.9888 17.2399H13.0396V19.2906H10.9888V17.2399ZM10.9679 25.6055H13.0605C13.5336 25.6055 13.9185 25.2206 13.9185 24.7475V22.6549C13.9185 22.1818 13.5336 21.7969 13.0605 21.7969H10.9679C10.4948 21.7969 10.1099 22.1818 10.1099 22.6549V24.7475C10.1099 25.2206 10.4948 25.6055 10.9679 25.6055ZM10.9888 22.6758H13.0396V24.7266H10.9888V22.6758Z" fill="#A8A8A8"/>
</g>
<defs>
<clipPath id="clip0_10_0">
<rect width="30" height="30" fill="white"/>
</clipPath>
</defs>
</svg>
