<svg width="18" height="20" viewBox="0 0 18 20" fill="none" xmlns="http://www.w3.org/2000/svg">
<path d="M5.25 5.78125V4.21875C5.25 3.96094 5.46094 3.75 5.71875 3.75H7.28125C7.53906 3.75 7.75 3.96094 7.75 4.21875V5.78125C7.75 6.03906 7.53906 6.25 7.28125 6.25H5.71875C5.46094 6.25 5.25 6.03906 5.25 5.78125ZM10.7188 6.25H12.2812C12.5391 6.25 12.75 6.03906 12.75 5.78125V4.21875C12.75 3.96094 12.5391 3.75 12.2812 3.75H10.7188C10.4609 3.75 10.25 3.96094 10.25 4.21875V5.78125C10.25 6.03906 10.4609 6.25 10.7188 6.25ZM5.71875 10H7.28125C7.53906 10 7.75 9.78906 7.75 9.53125V7.96875C7.75 7.71094 7.53906 7.5 7.28125 7.5H5.71875C5.46094 7.5 5.25 7.71094 5.25 7.96875V9.53125C5.25 9.78906 5.46094 10 5.71875 10ZM10.7188 10H12.2812C12.5391 10 12.75 9.78906 12.75 9.53125V7.96875C12.75 7.71094 12.5391 7.5 12.2812 7.5H10.7188C10.4609 7.5 10.25 7.71094 10.25 7.96875V9.53125C10.25 9.78906 10.4609 10 10.7188 10ZM7.75 13.2812V11.7188C7.75 11.4609 7.53906 11.25 7.28125 11.25H5.71875C5.46094 11.25 5.25 11.4609 5.25 11.7188V13.2812C5.25 13.5391 5.46094 13.75 5.71875 13.75H7.28125C7.53906 13.75 7.75 13.5391 7.75 13.2812ZM10.7188 13.75H12.2812C12.5391 13.75 12.75 13.5391 12.75 13.2812V11.7188C12.75 11.4609 12.5391 11.25 12.2812 11.25H10.7188C10.4609 11.25 10.25 11.4609 10.25 11.7188V13.2812C10.25 13.5391 10.4609 13.75 10.7188 13.75ZM17.75 18.5938V20H0.25V18.5938C0.25 18.3359 0.460938 18.125 0.71875 18.125H1.48047V0.9375C1.48047 0.417969 1.89844 0 2.41797 0H15.582C16.1016 0 16.5195 0.417969 16.5195 0.9375V18.125H17.2812C17.5391 18.125 17.75 18.3359 17.75 18.5938ZM3.35547 18.0859H7.75V15.4688C7.75 15.2109 7.96094 15 8.21875 15H9.78125C10.0391 15 10.25 15.2109 10.25 15.4688V18.0859H14.6445V1.91406L3.375 1.875L3.35547 18.0859Z" fill="#6C6C6C"/>
</svg>
