<svg width="334" height="387" viewBox="0 0 334 387" fill="none" xmlns="http://www.w3.org/2000/svg">
<path d="M113.825 154.444L291.091 102.333L162.331 172.893L113.825 154.444Z" fill="#BB9FC4"/>
<path d="M291.091 102.333L162.331 172.893L183.009 216.978L291.091 102.333Z" fill="#9F7BAB"/>
<path d="M291.091 102.333L188.45 182.133L229.712 238.818L291.091 102.333Z" fill="#BB9FC4"/>
<path d="M183.009 216.978L188.45 182.133L200.39 198.529L183.009 216.978Z" fill="#563D9B"/>
<path d="M169.359 224.413C169.359 224.413 168.581 225.191 167.12 226.56" stroke="#BB9FC4" stroke-miterlimit="10"/>
<path d="M162.456 230.76C142.991 247.902 85.5299 292.889 32.9815 279.325C-31.5381 262.711 -18.7275 193.707 19.3624 193.831C57.4522 193.956 80.7415 260.378 60.2196 304.245C39.6977 348.111 -23.7336 379.845 -111.449 357.445C-182.747 339.245 -241.732 264.205 -256.595 243.92" stroke="#BB9FC4" stroke-miterlimit="10" stroke-dasharray="20.13 20.13"/>
<circle cx="288" cy="18" r="18" fill="#DCF1F3"/>
<circle cx="66.5" cy="164.5" r="9.5" fill="#FFE0DF"/>
<circle cx="324.5" cy="219.5" r="9.5" fill="#C3AFFD"/>
<path d="M223.547 33.6794L222.432 50.964L208.021 41.3564L223.547 33.6794Z" fill="#FFB201"/>
<path d="M197.318 269.561L211.826 285.82L190.491 290.255L197.318 269.561Z" fill="#FF67FF"/>
</svg>
